<!--?xml version="1.0" encoding="utf-8"?-->
<!-- Generator: Adobe Illustrator 15.1.0, SVG Export Plug-In . SVG Version: 6.00 Build 0)  -->

<svg version="1.1" id="_x32_" xmlns="http://www.w3.org/2000/svg" xmlns:xlink="http://www.w3.org/1999/xlink" x="0px" y="0px" width="512px" height="512px" viewBox="0 0 512 512" style="width: 256px; height: 256px; opacity: 1;" xml:space="preserve">
<style type="text/css">

	.st0{fill:#4B4B4B;}

</style>
<g>
	<path class="st0" d="M192.523,236.469c-7.188,0-13,5.844-13,13.031v34.719c0,7.188,5.813,13,13,13s13.031-5.813,13.031-13V249.5
		C205.554,242.313,199.71,236.469,192.523,236.469z" style="fill: rgb(0, 0, 0);"></path>
	<path class="st0" d="M320.523,236.469c-7.188,0-13.016,5.844-13.016,13.031v34.719c0,7.188,5.828,13,13.016,13
		s13.031-5.813,13.031-13V249.5C333.554,242.313,327.71,236.469,320.523,236.469z" style="fill: rgb(0, 0, 0);"></path>
	<path class="st0" d="M333.929,160.875c-9.484-4.563-19.953-8.016-31.047-10.438c-14.813-3.25-30.75-4.672-46.891-4.672
		c-18.047-0.016-35.828,1.797-52.063,5.891c-16.266,4.094-30.938,10.469-42.922,19.531c-8.016,6.047-14.859,13.281-20.328,21.906
		c-6.953,11.031-11.688,24.438-13.453,40.891c60.281-13.297,87.906-44.203,100.469-68.078
		c13.297,13.828,32.203,27.344,57.234,39.219c26.406,12.531,59.563,23.188,100.047,30.469c-1.797-19.063-7.563-34.094-16.094-46.125
		C360.039,177.063,348.132,167.719,333.929,160.875z" style="fill: rgb(0, 0, 0);"></path>
	<path class="st0" d="M391.164,416.172c-10.297-10.297-15.688-12.172,14.672-49.516c26.171-32.219,62.796-67.359,47.734-162.719
		C438.679,109.625,371.132,0.078,256.007,0C140.867,0.078,73.32,109.625,58.429,203.938c-15.063,95.344,21.578,130.5,47.719,162.719
		c30.375,37.344,24.984,39.219,14.688,49.516s-38.516,29.203-33.078,53.547c0,0,35.078,42.281,168.25,42.281
		c133.156,0,168.234-42.281,168.234-42.281C429.679,445.375,401.46,426.469,391.164,416.172z M255.992,391.563
		c-27.469,0-54.516-7.906-77.688-22.344c-23.141-14.469-42.422-35.531-54.125-61.813c-7.813-17.5-12.234-37.344-12.234-58.938
		c0-4.656,0.203-9.219,0.609-13.594c1.953-21.875,8.766-40,19.266-54.469c10.469-14.5,24.516-25.188,40.438-32.781
		c10.609-5.063,22.094-8.781,34.063-11.375c15.969-3.469,32.781-4.938,49.672-4.938c19.125,0,38.156,1.875,55.938,6.406
		c17.781,4.516,34.344,11.656,48.281,22.313c9.297,7.094,17.406,15.75,23.797,26.063c8.547,13.781,14,30.5,15.563,50.188v0.031
		c0.297,3.906,0.469,7.969,0.469,12.156c0,21.594-4.422,41.406-12.203,58.938c-7.813,17.531-19,32.719-32.422,45.188
		C328.539,377.531,292.632,391.547,255.992,391.563z" style="fill: rgb(0, 0, 0);"></path>
</g>
</svg>
